<?xml version="1.0" encoding="utf-8"?>
<!-- Generator: Adobe Illustrator 25.0.0, SVG Export Plug-In . SVG Version: 6.00 Build 0)  -->
<svg version="1.1" id="Layer_1" xmlns="http://www.w3.org/2000/svg" xmlns:xlink="http://www.w3.org/1999/xlink" x="0px" y="0px"
	 viewBox="0 0 64.6 46.3" style="enable-background:new 0 0 64.6 46.3;" xml:space="preserve">
<style type="text/css">
	.st0{fill:#E40C14;}
	.st1{fill:#0449A7;}
	.st2{fill:#0247A5;}
	.st3{fill:#E00C15;}
	.st4{fill:#E30D16;}
	.st5{fill:#074CA9;}
</style>
<g>
	<path class="st0" d="M59.1,22.4c-1.9,2.5-4.4,4.4-7.3,5.7c-2.6,1.2-5.4,1.7-8.3,1.7c-4.1,0-8.3,0-12.4,0c-0.3,0-0.5,0.1-0.6,0.4
		c-1.5,4.1-3,8.1-4.5,12.2c-0.1,0.3-0.3,0.4-0.6,0.4c-2.7,0-5.4,0-8.1,0c-0.5,0-0.5-0.1-0.4-0.5c1-2.8,2.1-5.5,3.1-8.3
		c0.9-2.3,1.7-4.6,2.6-6.9c0.1-0.3,0.3-0.5,0.6-0.7c4.2-1.8,8.6-2.9,13.2-3.5c4.5-0.6,9-0.5,13.5-0.5c1.9,0,3.9,0,5.8,0
		c0.2,0,0.4,0,0.6,0c0.1,0.1,0.3,0,0.5,0C57.6,22.4,58.4,22.4,59.1,22.4z"/>
	<path class="st1" d="M48.6,18.2c0,0.4-0.1,0.7-0.1,1.1c0,0.2-0.1,0.4,0,0.7c0-0.3,0.1-0.5,0.1-0.7c0.1-0.3,0.2-0.6,0.4-0.9
		c0.5-0.7,1.3-1.1,2.1-1c0.8,0.1,1.5,0.9,1.7,1.7c0.1,0.2-0.1,0.6,0.2,0.7c0.2,0.1,0.4,0.1,0.7,0c0.6,0,1.1,0,1.7,0
		c0.5,0.1,0.9,0,1.4,0.1c0.1,0,0.2,0,0.3,0c0.3,0.5,0.9,0.6,1.4,0.6c0,0.3-0.2,0.3-0.5,0.3c-0.4,0-0.8,0-1.3,0c-0.1,0-0.3,0-0.4,0.1
		c-0.5,0.5-1.2,0.5-1.7,0c-0.1-0.1-0.2-0.1-0.4-0.1c-0.4,0-0.9,0-1.3,0c-0.4,0-0.8,0.1-1.2,0.3c-1.2,0.4-2.4,0.1-2.5-1.5
		c0-0.2,0-0.4,0-0.6c-0.4,0.7-0.2,1.3,0.2,1.9c-0.5,0-0.9,0-1.4,0c-2.9,0-5.9,0-8.8,0.2c-6.1,0.5-12,1.7-17.5,4.5
		c-3.5,1.8-6.7,4-9.4,7c-0.1,0.1-0.1,0.1-0.2,0.2c0,0-0.1,0-0.1-0.1c0.1-0.2,0.2-0.4,0.4-0.7c2.4-4.2,5.3-8.1,8.9-11.4
		c5-4.7,10.8-7.9,17.4-9.6c2.4-0.6,4.9-1,7.4-1.4c0.3,0,0.4,0,0.4,0.4c0,2.3,0,4.6,0,6.8c0,0.4-0.1,0.4-0.5,0.4
		c-2.2,0-4.4,0-6.7,0.3c-3.1,0.3-6.3,0.8-9.3,1.9c-0.2,0.1-0.4,0.2-0.6,0.3c-0.2,0-0.5,0.2-0.8,0.1c0.2-0.3,0.7-0.3,1-0.7
		c-0.5,0-1,0.2-1.4,0.3c-2.8,1-5.4,2.5-7.8,4.3c0-0.1,0-0.2,0-0.3c0.1-0.2,0.3-0.2,0.4-0.5c-0.8,0.6-1.6,1.3-2.2,2.1
		c-0.4,0.6-1.1,1.1-1.5,1.7c0.1,0,0.1,0,0.1,0c0.1-0.1,0.2-0.1,0.2-0.2c1.8-1.5,3.7-3,5.7-4.2c2-1.1,4-2.2,6.2-2.6c0,0,0.1,0,0.1,0
		c0.1,0,0.1,0,0.1,0c1.2-0.2,2.4-0.5,3.6-0.7c2.1-0.3,4.1-0.5,6.2-0.7c2.4-0.2,4.8-0.3,7.2-0.2c0.4,0,0.5-0.1,0.5-0.5
		c0-2.5,0-5,0-7.4c0-0.6,0-0.6,0.5-0.4c2.6,0.6,5.3,1,7.9,1.5c0.7,0.1,1.1,0.6,1.5,1.2c0.1,0.2,0,0.3-0.2,0.3
		c-0.7-0.1-1.3-0.1-2-0.2c-1.9-0.3-3.8-0.1-5.7,0.3c-0.7,0.1-0.8,0.2-0.8,1c0,0.1,0,0.1,0,0.2c-0.1,1.3-0.1,2.6-0.1,3.9
		C48.6,17.9,48.6,18,48.6,18.2z M35.2,15.1c0.1-0.4-0.1-0.4-0.4-0.3c-1.1,0.3-2.2,0.6-3.3,1c-0.5,0.2-0.2,0.4-0.1,0.6
		c0.1,0.3,0.2,0.3,0.5,0.2c1-0.4,2-0.7,3-1.1C35.2,15.5,35.3,15.4,35.2,15.1z M30.3,17.1c0,0-0.1-0.1-0.1-0.2
		c-0.3-0.2-0.6-0.4-1-0.2c-0.7,0.3-1.4,0.7-2,1.1c-0.1,0.1-0.4,0.1-0.2,0.3c0.2,0.2,0.3,0.6,0.7,0.4c0.8-0.4,1.7-0.8,2.5-1.2
		C30.2,17.3,30.3,17.3,30.3,17.1z M50.3,19.6c0,0.5,0.3,0.8,0.7,0.8c0.4,0,0.7-0.3,0.7-0.8c0-0.5-0.3-0.9-0.7-0.9
		C50.6,18.7,50.3,19.2,50.3,19.6z M24.8,20.2c0.1-0.1,0.2-0.1,0.3-0.1c0.5-0.3,0.9-0.5,1.4-0.8c0.1-0.1,0.4-0.1,0.3-0.4
		c-0.1-0.2-0.3-0.5-0.7-0.3c-0.5,0.3-1,0.6-1.5,0.9c-0.1,0.1-0.2,0.1-0.1,0.3C24.6,19.9,24.6,20.1,24.8,20.2z M37,20.5
		c0.3,0,0.6-0.1,0.6-0.4c0-0.3-0.2-0.4-0.4-0.3c-0.3,0.1-0.7-0.2-0.7,0.4C36.5,20.5,36.8,20.4,37,20.5z M30.5,20.7
		c0-0.1,0.1-0.4-0.2-0.3c-0.3,0.1-0.7-0.1-0.8,0.4c0,0.1-0.1,0.4,0.2,0.4C30.3,21.2,30.5,21.1,30.5,20.7z M34.2,20.3
		c-0.1-0.1,0.1-0.4-0.3-0.4c-0.2,0-0.3,0-0.3,0.2c0.1,0.2-0.2,0.5,0.2,0.5C34.1,20.5,34.3,20.6,34.2,20.3z M32,20.6
		c0-0.2,0-0.4-0.3-0.4c-0.1,0-0.3,0-0.2,0.2c0.1,0.2-0.1,0.5,0.2,0.6C31.9,21,32,20.8,32,20.6z"/>
	<path class="st2" d="M59.1,22.4c-0.8,0-1.5,0-2.3,0c-0.2,0-0.3,0-0.5,0c0.5-0.4,1-0.4,1.6-0.4c1.1,0,1.6-0.5,1.5-1.6
		c-0.2-1.6-0.2-3.1-0.5-4.7c-0.1-0.5,0-1-0.2-1.5c-0.1-0.2-0.1-0.3-0.1-0.5c-0.1-0.4-0.2-0.7-0.2-1.1c0.1-0.8-0.7-1.9-1.6-2.3
		c-0.9-0.4-1.8-0.4-2.7-0.6c-1.4-0.3-2.9-0.5-4.3-0.8c-0.5-0.1-0.9-0.3-1.3-0.5c-0.6-0.3-1.2-0.4-1.9-0.4c-7.1,0-14.2,0-21.3,0
		c-0.1,0-0.1,0-0.2,0c-0.4,0.1-0.4-0.1-0.3-0.4c0.4-1.1,0.8-2.3,1.1-3.4c0.2-0.5,0.3-0.9,0.5-1.4C26.7,2.1,26.9,2,27.4,2
		c1.8,0,3.6,0,5.4,0c5.9,0,11.7,0,17.6,0c2.5,0,5,0.3,7.3,1.5c3.3,1.6,5,4.4,5.1,8c0.2,4-1,7.6-3.5,10.7
		C59.3,22.2,59.2,22.3,59.1,22.4z"/>
	<path class="st3" d="M2.5,14.6c0.2-0.2,0.4-0.2,0.6-0.3c1.7-0.3,3.4-0.6,5.2-0.7c6.4-0.4,12.7-0.8,19.1-0.8c0.1,0,0.1,0,0.2,0
		c0.1,0,0.3-0.1,0.4,0.1c0.1,0.2-0.1,0.2-0.3,0.3c-0.8,0.5-1.6,1-2.3,1.6c-0.6,0.6-1.3,0.7-2.1,0.6c-3.4-0.2-6.8-0.3-10.3-0.5
		C9.7,15,6.3,14.9,2.9,14.8C2.8,14.7,2.6,14.8,2.5,14.6z"/>
	<path class="st3" d="M11.3,11.3c0.2-0.3,0.6-0.3,0.9-0.3c1.6-0.3,3.3-0.4,4.9-0.5c5.1-0.2,10.1-0.3,15.2-0.3c0.2,0,0.6-0.1,0.6,0.1
		c0.1,0.3-0.3,0.3-0.5,0.4c-0.9,0.5-1.9,1-2.8,1.5c-0.2,0.1-0.3,0.1-0.5,0.1c-2.8-0.2-5.6-0.4-8.4-0.6c-3-0.2-5.9-0.4-8.9-0.4
		C11.6,11.4,11.4,11.4,11.3,11.3z"/>
	<path class="st4" d="M15.1,18.3c-1.4-0.1-3.1-0.1-4.9-0.1c-0.2,0-0.4,0.1-0.5-0.1c0-0.2,0.3-0.2,0.4-0.3c1.3-0.3,2.5-0.5,3.8-0.7
		c2.9-0.4,5.9-0.6,8.9-0.7c0.1,0,0.2,0,0.3,0c0.1,0,0.1,0,0.2,0.1c0,0.1,0,0.1-0.1,0.2c-0.6,0.6-1.3,1.1-1.9,1.7
		c-0.1,0.1-0.3,0.1-0.4,0.1C19.1,18.4,17.3,18.4,15.1,18.3z"/>
	<path class="st5" d="M57.6,15.5c-1-0.1-2-0.2-3.1-0.3c-0.3,0-0.4-0.1-0.5-0.4c-0.1-0.6-0.3-1.2-0.5-1.9c-0.1-0.2,0-0.3,0.2-0.3
		c1.1,0.1,2.2,0.2,3.4,0.4c0.2,0,0.4,0.2,0.4,0.4c0.2,0.5,0.4,1,0.5,1.6C58.2,15.5,58.1,15.5,57.6,15.5z"/>
	<path class="st5" d="M56.4,17.8c-0.6,0-1.1,0-1.7,0c-0.5,0-0.3-0.3-0.3-0.5c-0.1-0.3,0.2-0.3,0.3-0.3c1,0.1,2.1,0.1,3.1,0.2
		c0.2,0,0.3,0.1,0.4-0.2c0-0.3-0.2-0.2-0.3-0.2c-1-0.1-2.1-0.2-3.1-0.2c-0.5,0-0.4-0.3-0.4-0.6c0-0.4,0.3-0.2,0.5-0.2
		c1,0.1,2,0.2,3,0.4c0.3,0.1,0.5,0.2,0.5,0.6c0,0.3,0,0.6,0.1,1c0,0.2-0.1,0.3-0.3,0.3c-0.6,0-1.1,0-1.7,0
		C56.4,17.8,56.4,17.8,56.4,17.8z"/>
	<path class="st5" d="M50.8,13.6c0-0.7,0-0.7,0.6-0.7c0.1,0,0.2,0,0.3,0c1.3-0.1,1-0.3,1.5,1c0.1,0.3,0.2,0.6,0.3,1
		c0,0.2,0,0.3-0.3,0.3c-0.7-0.2-1.4-0.4-2.1-0.6C50.7,14.2,50.8,13.8,50.8,13.6z"/>
	<path class="st5" d="M58.5,20.5c-0.6,0-1.1-0.1-1.4-0.6c0.1-0.1,0.2,0,0.3-0.2c-0.5-0.2-1-0.4-1.6-0.4c-0.3,0-0.7,0-1-0.1
		c-0.5-0.1-0.3-0.5-0.3-0.8c0-0.3,0.3-0.2,0.4-0.2c0.7,0,1.4,0,2.1,0.1c-0.2,0-0.5,0-0.8,0c0.3,0.1,0.3,0.5,0.6,0.4
		c0.5-0.2,1-0.3,1.4,0.3c0.2,0.3,0.2,0.3-0.1,0.5c-0.1,0.1-0.3,0.1-0.3,0.3c0,0.2,0.2,0.2,0.4,0.2c0.1,0,0.2,0,0.3,0.1
		C58.5,20.2,58.5,20.3,58.5,20.5z"/>
	<path class="st1" d="M58.5,20.1c-0.1,0-0.2-0.1-0.3-0.1c-0.2,0-0.3-0.1-0.4-0.2c-0.1-0.2,0.2-0.3,0.3-0.3c0.3-0.1,0.2-0.2,0.1-0.5
		c-0.4-0.6-0.9-0.5-1.4-0.3c-0.3,0.1-0.3-0.3-0.6-0.4c0.3,0,0.6,0,0.8,0c0.3,0,0.7,0,1,0c0.4,0,0.5,0.2,0.5,0.4
		C58.4,19.2,58.5,19.7,58.5,20.1z"/>
	<path class="st5" d="M56.7,19.9c-0.5,0-0.9,0.1-1.4-0.1C55.8,19.8,56.3,19.8,56.7,19.9z"/>
	<path class="st5" d="M53.7,19.8c-0.2,0.1-0.4,0.1-0.7,0C53.2,19.8,53.4,19.8,53.7,19.8z"/>
	<path class="st5" d="M18.9,25.1c0.6-0.6,1.2-1.1,1.8-1.7c0,0.1,0,0.2,0,0.3c-0.5,0.4-1,0.9-1.5,1.3c-0.1,0.1-0.2,0.2-0.4,0.2l0,0
		C18.9,25.1,18.9,25.1,18.9,25.1z"/>
	<path class="st5" d="M18.9,25.2C18.9,25.2,18.9,25.2,18.9,25.2C18.8,25.2,18.9,25.2,18.9,25.2C18.9,25.2,18.9,25.2,18.9,25.2z"/>
</g>
</svg>
